<?xml version="1.0" standalone="no"?>
<!DOCTYPE svg PUBLIC "-//W3C//DTD SVG 20010904//EN"
 "http://www.w3.org/TR/2001/REC-SVG-20010904/DTD/svg10.dtd">
<svg version="1.0" xmlns="http://www.w3.org/2000/svg"
 width="256.000000pt" height="256.000000pt" viewBox="0 0 256.000000 256.000000"
 preserveAspectRatio="xMidYMid meet">
<metadata>
Created by potrace 1.14, written by Peter Selinger 2001-2017
</metadata>
<g transform="translate(0.000000,256.000000) scale(0.100000,-0.100000)"
fill="#000000" stroke="none">
<path d="M1265 2348 c-2 -7 -3 -62 -2 -122 l2 -109 277 -139 c292 -147 335
-177 393 -274 54 -92 58 -127 59 -544 l1 -385 113 -58 c63 -32 119 -56 126
-54 19 8 14 910 -6 992 -31 128 -105 239 -213 322 -65 49 -745 386 -750 371z"/>
<path d="M796 2123 c-3 -3 -6 -57 -6 -119 l0 -113 313 -157 c171 -85 326 -165
344 -177 18 -12 42 -40 54 -62 23 -39 23 -42 23 -495 l1 -455 110 -57 c61 -31
116 -57 123 -58 9 0 12 114 12 540 0 527 0 541 -21 597 -40 107 -68 125 -514
347 -220 110 -407 203 -416 207 -9 5 -19 5 -23 2z"/>
<path d="M317 1893 c-10 -18 1 -920 11 -971 25 -116 82 -215 171 -300 48 -46
108 -80 423 -238 265 -133 370 -181 374 -171 2 7 3 62 2 122 l-3 109 -261 131
c-262 130 -301 153 -362 216 -42 43 -92 148 -99 211 l-6 49 362 -180 c198
-100 364 -181 366 -181 3 0 4 55 3 121 l-3 121 -355 179 c-195 98 -359 180
-364 182 -9 3 -17 223 -9 239 2 4 166 -73 363 -172 198 -99 362 -180 365 -180
3 0 5 44 5 98 0 79 -4 103 -20 129 -17 28 -86 66 -480 263 -253 126 -464 230
-469 230 -6 0 -12 -3 -14 -7z"/>
</g>
</svg>
